<?xml version="1.0" encoding="UTF-8"?>
<!-- Generator: Adobe Illustrator 24.0.3, SVG Export Plug-In . SVG Version: 6.00 Build 0)  -->
<svg id="svg22" width="36.3" height="39" version="1.1" viewBox="0 0 36.3 39" xml:space="preserve" xmlns="http://www.w3.org/2000/svg">
<style id="style2" type="text/css">
	.st0{display:none;}
	.st1{display:inline;}
</style>
<g id="Lager_3" class="st0" transform="translate(-14.4,-12.5)">
	<g id="g12" class="st1">
		<polygon id="polygon4" points="9.2 10.1 28.3 19.4 28.3 55.6 9.2 46.3"/>
		<path id="path6" d="m39.9 46.3h-30.7c-0.6 0-1.2-0.5-1.2-1.2v-35c0-0.6 0.5-1.1 1.2-1.1h30.7c0.6 0 1.2 0.5 1.2 1.2v7.6c0 0.6-0.5 1.2-1.2 1.2-0.6 0-1.2-0.5-1.2-1.2v-6.4h-28.4v32.6h28.4v-12.2c0-0.6 0.5-1.2 1.2-1.2 0.6 0 1.2 0.5 1.2 1.2v13.4c-0.1 0.6-0.6 1.1-1.2 1.1z"/>
		<path id="path8" d="m54.8 26.2h-20.5c-1 0-1.7-0.8-1.7-1.7s0.8-1.7 1.7-1.7h16.3l-5.9-5.9c-0.7-0.7-0.7-1.8 0-2.5s1.8-0.7 2.5 0l8.9 8.9c0.5 0.5 0.6 1.2 0.4 1.9s-1 1-1.7 1z"/>
		<path id="path10" d="m45.9 35.1c-0.4 0-0.9-0.2-1.2-0.5-0.7-0.7-0.7-1.8 0-2.5l8.9-8.9c0.7-0.7 1.8-0.7 2.5 0s0.7 1.8 0 2.5l-8.9 8.9c-0.4 0.3-0.8 0.5-1.3 0.5z"/>
	</g>
</g>
<g id="Lager_2" transform="translate(-14.4,-12.5)">
	<path id="path15" d="m47.6 51.5h-32c-0.7 0-1.2-0.5-1.2-1.2v-36.6c0-0.7 0.5-1.2 1.2-1.2h32c0.7 0 1.2 0.5 1.2 1.2v10.9c0 0.7-0.5 1.2-1.2 1.2s-1.2-0.5-1.2-1.2v-9.6h-29.6v34h29.6v-9.8c0-0.7 0.5-1.2 1.2-1.2s1.2 0.5 1.2 1.2v11c0 0.7-0.6 1.3-1.2 1.3z"/>
	<path id="path17" d="m26.3 30.5h22.9c0.8 0 1.5 0.7 1.5 1.5s-0.7 1.5-1.5 1.5h-19.3l5.1 5.1c0.6 0.6 0.6 1.6 0 2.1-0.6 0.6-1.6 0.6-2.1 0l-7.7-7.7c-0.4-0.4-0.6-1.1-0.3-1.7 0.2-0.4 0.7-0.8 1.4-0.8z"/>
	<path id="path19" d="m34 22.7c0.4 0 0.8 0.1 1.1 0.4 0.6 0.6 0.6 1.6 0 2.1l-7.7 7.7c-0.6 0.6-1.6 0.6-2.1 0-0.6-0.6-0.6-1.6 0-2.1l7.7-7.7c0.2-0.2 0.6-0.4 1-0.4z"/>
</g>
</svg>
