<?xml version="1.0" encoding="utf-8"?>
<!-- Generator: Adobe Illustrator 24.0.3, SVG Export Plug-In . SVG Version: 6.00 Build 0)  -->
<svg version="1.1" id="Lager_1" xmlns="http://www.w3.org/2000/svg" xmlns:xlink="http://www.w3.org/1999/xlink" x="0px" y="0px"
	 viewBox="0 0 42.4 42.4" style="enable-background:new 0 0 42.4 42.4;" xml:space="preserve">
<g>
	<path d="M42,41.9H0.4V0.4H42V41.9z M2.4,39.9H40V2.4H2.4V39.9z"/>
	<rect x="31" y="1.4" width="9.9" height="9.9"/>
	<rect x="1.4" y="31" width="9.9" height="9.9"/>
	<rect x="21.3" y="21.1" transform="matrix(6.123234e-17 -1 1 6.123234e-17 0.2403 52.3823)" width="9.9" height="9.9"/>
	<rect x="11.3" y="11.2" transform="matrix(6.123234e-17 -1 1 6.123234e-17 0.1251 32.3774)" width="9.9" height="9.9"/>
	<rect x="1.4" y="11.1" width="39.6" height="0.5"/>
	<rect x="1.4" y="21" width="39.6" height="0.5"/>
	<rect x="1.4" y="30.8" width="39.6" height="0.5"/>
	<rect x="-8.5" y="20.5" transform="matrix(6.123234e-17 -1 1 6.123234e-17 -9.4269 32.0922)" width="39.6" height="0.5"/>
	<rect x="1.4" y="20.5" transform="matrix(6.123234e-17 -1 1 6.123234e-17 0.4229 41.9419)" width="39.6" height="0.5"/>
	<rect x="11.2" y="20.5" transform="matrix(6.123234e-17 -1 1 6.123234e-17 10.2726 51.7917)" width="39.6" height="0.5"/>
</g>
</svg>
