<?xml version="1.0" encoding="UTF-8"?>
<!-- Generator: Adobe Illustrator 24.0.3, SVG Export Plug-In . SVG Version: 6.00 Build 0)  -->
<svg id="svg146" width="48" height="48" version="1.1" viewBox="0 0 48 48" xml:space="preserve" xmlns="http://www.w3.org/2000/svg">
<style id="style2" type="text/css">
	.st0{display:none;}
	.st1{display:inline;}
	.st2{stroke:#000000;stroke-miterlimit:10;}
	.st3{stroke:#000000;stroke-width:1.5;stroke-miterlimit:10;}
	.st4{fill:none;stroke:#000000;stroke-width:2;stroke-linecap:round;stroke-linejoin:round;stroke-miterlimit:10;}
	.st5{font-family:'Roboto-Medium';}
	.st6{font-size:19.4226px;}
	.st7{font-family:'Roboto-Bold';}
	.st8{font-size:20.3927px;}
	.st9{letter-spacing:-1;}
</style>
<g id="Lager_2" class="st0" transform="translate(-8.5,-6.8)">
	<g id="Layer_2" class="st1">
		<g id="_x34_4px-Line">
			
			<path id="Shape" class="st2" d="m32 22.3c-5.3 0-9.7 4.3-9.7 9.7s4.3 9.7 9.7 9.7 9.7-4.3 9.7-9.7-4.4-9.7-9.7-9.7zm0 17c-4 0-7.3-3.3-7.3-7.3s3.3-7.3 7.3-7.3 7.3 3.3 7.3 7.3-3.3 7.3-7.3 7.3z"/>
			<path id="Shape_1_" class="st2" d="m55.4 27.2h-3.3c-0.5-2.1-1.3-4.1-2.3-5.8l2-2c1.2-1.2 1.2-3.2 0-4.4l-2.7-2.7c-1.2-1.2-3.2-1.2-4.4 0l-2 2c-1.7-1-3.7-1.8-5.8-2.3v-3.4c0-1.7-1.4-3.2-3.2-3.2h-3.3c-1.7 0-3.2 1.4-3.2 3.2v3.3c-2.1 0.5-4.1 1.3-5.8 2.3l-2-2c-1.2-1.2-3.2-1.2-4.4 0l-2.7 2.7c-1.2 1.2-1.2 3.2 0 4.4l2 2c-1 1.7-1.8 3.7-2.3 5.8h-3.4c-1.7 0-3.2 1.4-3.2 3.2v3.3c0 1.7 1.4 3.2 3.2 3.2h3.3c0.5 2.1 1.3 4.1 2.3 5.8l-2 2c-1.2 1.2-1.2 3.2 0 4.4l2.7 2.7c1.2 1.2 3.2 1.2 4.4 0l2-2c1.7 1 3.7 1.8 5.8 2.3v3.3c0 1.7 1.4 3.2 3.2 3.2h3.3c1.7 0 3.2-1.4 3.2-3.2v-3.3c2.1-0.5 4.1-1.3 5.8-2.3l2 2c1.2 1.2 3.2 1.2 4.4 0l2.7-2.7c0.6-0.6 0.9-1.4 0.9-2.2s-0.3-1.6-0.9-2.2l-2-2c1-1.7 1.8-3.7 2.3-5.8h3.3c1.7 0 3.2-1.4 3.2-3.2v-3.3c0.1-1.7-1.3-3.1-3.1-3.1zm0.8 6.5c0 0.4-0.3 0.7-0.7 0.7h-4.3c-0.6 0-1.1 0.4-1.2 1-0.5 2.5-1.5 4.9-2.7 6.8-0.3 0.5-0.3 1.1 0.1 1.5l2.7 2.7c0.1 0.1 0.2 0.3 0.2 0.5s-0.1 0.4-0.2 0.5l-2.7 2.7c-0.3 0.3-0.7 0.3-1 0l-2.7-2.7c-0.4-0.4-1-0.5-1.5-0.2-1.8 1.2-4.3 2.2-6.8 2.7-0.6 0.1-1 0.6-1 1.2v4.3c0 0.4-0.3 0.7-0.7 0.7h-3.3c-0.4 0-0.7-0.3-0.7-0.7v-4.3c0-0.6-0.4-1.1-1-1.2-2.5-0.5-4.9-1.5-6.8-2.7-0.2-0.1-0.4-0.2-0.7-0.2s-0.6 0.1-0.9 0.4l-2.7 2.7c-0.3 0.3-0.7 0.3-1 0l-2.7-2.7c-0.3-0.3-0.3-0.7 0-1l2.7-2.7c0.4-0.4 0.5-1 0.2-1.5-1.2-1.8-2.2-4.3-2.7-6.8-0.1-0.6-0.6-1-1.2-1h-4.3c-0.4 0-0.7-0.3-0.7-0.7v-3.3c0-0.4 0.3-0.7 0.7-0.7h4.3c0.6 0 1.1-0.4 1.2-1 0.5-2.5 1.5-4.9 2.7-6.8 0.3-0.5 0.3-1.1-0.2-1.5l-2.7-2.7c-0.3-0.3-0.3-0.7 0-1l2.7-2.7c0.3-0.3 0.7-0.3 1 0l2.7 2.7c0.4 0.4 1 0.5 1.5 0.1 1.8-1.2 4.3-2.2 6.8-2.7 0.6-0.1 1-0.6 1-1.2v-4.3c0-0.4 0.3-0.7 0.7-0.7h3.3c0.4 0 0.7 0.3 0.7 0.7v4.3c0 0.6 0.4 1.1 1 1.2 2.5 0.5 5 1.5 6.8 2.7 0.5 0.3 1.1 0.3 1.5-0.2l2.7-2.7c0.3-0.3 0.7-0.3 1 0l2.7 2.7c0.3 0.3 0.3 0.7 0 1l-2.7 2.7c-0.4 0.4-0.5 1-0.2 1.5 1.2 1.8 2.2 4.3 2.7 6.8 0.1 0.6 0.6 1 1.2 1h4.3c0.4 0 0.7 0.3 0.7 0.7z"/>
		</g>
	</g>
</g>
<g id="Guides" class="st0" transform="translate(-8.5,-6.8)">
	<g id="Layer_1">
		<g id="Home" class="st1">
			<g id="gen-home">
				<path id="path10" class="st3" d="m58.2 33.4c-0.2 0-0.5-0.1-0.7-0.3l-25.4-25.3-25.3 25.3c-0.4 0.4-1 0.4-1.4 0s-0.4-1 0-1.4l26-26c0.4-0.4 1-0.4 1.4 0l26 26c0.4 0.4 0.4 1 0 1.4-0.1 0.2-0.4 0.3-0.6 0.3z"/>
				<path id="path12" class="st3" d="m54.3 58.5h-17.3c-0.5 0-1-0.4-1-1v-14.4h-7.7v14.5c0 0.5-0.4 1-1 1h-17.3c-0.5 0-1-0.4-1-1v-24.2c0-0.5 0.4-1 1-1s1 0.4 1 1v23.1h15.4v-14.4c0-0.5 0.4-1 1-1h9.6c0.5 0 1 0.4 1 1v14.5h15.4v-23.2c0-0.5 0.4-1 1-1 0.5 0 1 0.4 1 1v24.1c-0.1 0.5-0.6 1-1.1 1z"/>
				<path id="path14" class="st3" d="m54.3 24.8c-0.5 0-1-0.4-1-1v-11.6h-5.8v3.9c0 0.5-0.4 1-1 1s-1-0.4-1-1v-4.8c0-0.5 0.4-1 1-1h7.7c0.5 0 1 0.4 1 1v12.5c0.1 0.5-0.4 1-0.9 1z"/>
			</g>
		</g>
		<g id="Editions" class="st1">
			<g id="dri-cup-tea">
				<path id="path18" d="m54.9 39.7h-4.8c-0.5 0-1-0.4-1-1 0-0.5 0.4-1 1-1h4.8c2.1 0 3.9-1.7 3.9-3.9v-3.9c0-2.1-1.7-3.9-3.9-3.9h-4.8c-0.5 0-1-0.4-1-1s0.4-1 1-1h4.8c3.2 0 5.8 2.6 5.8 5.8v3.9c0 3.4-2.6 6-5.8 6z"/>
				<path id="path20" d="m31.8 59c-10.6 0-19.3-8.6-19.3-19.3v-14.5c0-0.5 0.4-1 1-1h36.6c0.5 0 1 0.4 1 1v14.5c0 10.6-8.7 19.3-19.3 19.3zm-17.3-32.8v13.5c0 9.6 7.8 17.3 17.3 17.3s17.3-7.8 17.3-17.3v-13.5z"/>
				<path id="path22" d="m57.8 59h-52c-0.5 0-1-0.4-1-1 0-0.5 0.4-1 1-1h52c0.5 0 1 0.4 1 1 0 0.5-0.4 1-1 1z"/>
				<path id="path24" d="m22.2 20.4c-0.5 0-1-0.4-1-1s0.4-1 1-1c1.1 0 1.9-0.9 1.9-1.9 0-0.8-0.6-1.4-1.7-2.3-0.3-0.3-0.6-0.6-1-0.9-0.2-0.2-0.5-0.5-0.8-0.7-1.1-1-2.4-2.2-2.4-3.8 0-2.1 1.7-3.9 3.9-3.9 0.5 0 1 0.4 1 1s-0.4 1-1 1c-1.1 0-1.9 0.9-1.9 1.9 0 0.8 0.9 1.6 1.8 2.4 0.3 0.3 0.6 0.5 0.8 0.8 0.3 0.3 0.6 0.6 0.9 0.8 1.1 1 2.3 2.1 2.3 3.7 0 2.2-1.7 3.9-3.8 3.9z"/>
				<path id="path26" d="m31.8 20.4c-0.5 0-1-0.4-1-1s0.4-1 1-1c1.1 0 1.9-0.9 1.9-1.9 0-0.8-0.6-1.4-1.7-2.3-0.3-0.3-0.6-0.6-1-0.9-0.2-0.2-0.5-0.5-0.8-0.7-1.1-1-2.4-2.2-2.4-3.8 0.2-2.1 1.9-3.8 4-3.8 0.5 0 1 0.4 1 1s-0.4 1-1 1c-1.1 0-1.9 0.9-1.9 1.9 0 0.8 0.9 1.6 1.8 2.4 0.3 0.3 0.6 0.5 0.8 0.8 0.3 0.3 0.6 0.6 0.9 0.8 1.1 1 2.3 2.1 2.3 3.7 0 2.1-1.8 3.8-3.9 3.8z"/>
				<path id="path28" d="m41.5 20.4c-0.5 0-1-0.4-1-1s0.4-1 1-1c1.1 0 1.9-0.9 1.9-1.9 0-0.8-0.6-1.4-1.7-2.3-0.3-0.3-0.6-0.6-1-0.9-0.2-0.2-0.5-0.5-0.8-0.7-1.1-1-2.4-2.2-2.4-3.8 0-2.1 1.7-3.9 3.9-3.9 0.5 0 1 0.4 1 1s-0.4 1-1 1c-1.1 0-1.9 0.9-1.9 1.9 0 0.8 0.9 1.6 1.8 2.4 0.3 0.3 0.6 0.5 0.8 0.8 0.3 0.3 0.6 0.6 0.9 0.8 1.1 1 2.3 2.1 2.3 3.7 0 2.2-1.7 3.9-3.8 3.9z"/>
			</g>
		</g>
		<g id="Search" class="st1">
			<g id="ios-search_1_">
				<path id="path32" d="m27.8 45.7c-10.1 0-18.3-8.2-18.3-18.3s8.3-18.3 18.3-18.3 18.3 8.2 18.3 18.3-8.2 18.3-18.3 18.3zm0-34.7c-9 0-16.4 7.3-16.4 16.4s7.3 16.4 16.4 16.4 16.4-7.3 16.4-16.4-7.3-16.4-16.4-16.4z"/>
				<rect id="rect34" transform="matrix(.7071 -.7071 .7071 .7071 -19.136 46.814)" x="45" y="36" width="3.9" height="21"/>
			</g>
		</g>
		<g id="Latest_news" class="st1">
			<g id="gen-heart-rate-2">
				<path id="path38" d="m36.9 54.1c-0.5 0-0.9-0.3-0.9-0.8l-7.7-37.8-5.8 28.2c-0.1 0.4-0.4 0.7-0.9 0.8-0.4 0-0.8-0.2-1-0.6l-2.7-7.1h-13.8c-0.5 0-1-0.4-1-1 0-0.5 0.4-1 1-1h14.5c0.4 0 0.8 0.2 0.9 0.6l1.7 4.6 6.1-29.5c0.1-0.4 0.5-0.8 0.9-0.8 0.5 0 0.9 0.3 0.9 0.8l7.9 38.5 5.7-21.1c0.1-0.4 0.5-0.7 0.9-0.7s0.8 0.2 0.9 0.6l2.7 7.1h12.8c0.5 0 1 0.4 1 1 0 0.5-0.4 1-1 1h-13.5c-0.4 0-0.8-0.2-0.9-0.6l-1.8-4.9-6 22.2c-0.1 0.2-0.5 0.5-0.9 0.5z"/>
			</g>
		</g>
		<g id="Hamburger" class="st1">
			<g id="ui-menu-circle_2_">
				<path id="path42" d="m31.8 58c-14.3 0-26-11.7-26-26s11.7-26 26-26 26 11.7 26 26-11.6 26-26 26zm0-50.1c-13.3 0-24.1 10.8-24.1 24.1s10.8 24.1 24.1 24.1 24.1-10.8 24.1-24.1-10.8-24.1-24.1-24.1z"/>
				<path id="path44" d="m45.3 23.3h-27c-0.5 0-1-0.4-1-1s0.4-1 1-1h27c0.5 0 1 0.4 1 1s-0.5 1-1 1z"/>
				<path id="path46" d="m45.3 32.9h-27c-0.5 0-1-0.4-1-1 0-0.5 0.4-1 1-1h27c0.5 0 1 0.4 1 1s-0.5 1-1 1z"/>
				<path id="path48" d="m45.3 42.6h-27c-0.5 0-1-0.4-1-1 0-0.5 0.4-1 1-1h27c0.5 0 1 0.4 1 1 0 0.5-0.5 1-1 1z"/>
			</g>
		</g>
		<g id="Textsize" class="st1">
			<g id="typ-caps-small">
				<polyline id="polyline52" class="st4" points="6 22.4 6 16.3 30.5 16.3 30.5 22.4"/>
				<path id="path54" class="st4" d="m18.2 44.8c0 2.3 1.8 4.1 4.1 4.1h-8.2c2.3 0 4.1-1.8 4.1-4.1v-28.5"/>
				<path id="path56" class="st4" d="m24.3 16.3"/>
				<path id="path58" class="st4" d="m6 19.4c0-1.7 1.4-3.1 3.1-3.1"/>
				<path id="path60" class="st4" d="m30.5 19.4c0-1.7-1.4-3.1-3.1-3.1"/>
				<polyline id="polyline62" class="st4" points="38.6 32.6 38.6 26.5 59 26.5 59 32.6"/>
				<path id="path64" class="st4" d="m48.8 44.8c0 2.3 1.8 4.1 4.1 4.1h-8.2c2.3 0 4.1-1.8 4.1-4.1v-18.3"/>
				<path id="path66" class="st4" d="m52.9 26.5"/>
				<path id="path68" class="st4" d="m38.6 29.6c0-1.7 1.4-3.1 3.1-3.1"/>
				<path id="path70" class="st4" d="m59 29.6c0-1.7-1.4-3.1-3.1-3.1"/>
			</g>
		</g>
		<g id="Text-to-speech" class="st1">
			<g id="mus-vol-high_2_">
				<path id="path74" class="st4" d="m34.6 10c-0.4 0-0.8 0.1-1.1 0.4l-16.5 13.7h-6.2c-1.5 0-2.6 1.2-2.6 2.6v10.6c0 1.5 1.2 2.6 2.6 2.6h6.2l16.5 13.7c0.3 0.2 0.7 0.4 1.1 0.4 1 0 1.8-0.8 1.8-1.8v-40.4c0-1-0.8-1.8-1.8-1.8z"/>
				<path id="path76" class="st4" d="m36.4 40.6c3.1-1.6 5.3-4.9 5.3-8.6s-2.1-7-5.3-8.6"/>
				<path id="path78" class="st4" d="m48.9 47.2c4.2-3.7 6.8-9.1 6.8-15.2 0-6-2.6-11.4-6.8-15.1"/>
				<path id="path80" class="st4" d="m43.9 42.2c2.9-2.4 4.8-6.1 4.8-10.2s-1.9-7.7-4.8-10.1"/>
			</g>
		</g>
	</g>
</g>
<g id="Profil" transform="translate(-8.5,-6.8)">
	<g id="g92">
		<path id="path86" d="m32.5 54.8c-13.2 0-24-10.8-24-24s10.8-24 24-24 24 10.8 24 24-10.8 24-24 24zm0-45.6c-11.9 0-21.7 9.7-21.7 21.7s9.7 21.7 21.7 21.7 21.7-9.7 21.7-21.7-9.8-21.7-21.7-21.7z"/>
		<circle id="circle88" cx="32.5" cy="25.1" r="7.6"/>
		<ellipse id="ellipse90" cx="32.5" cy="43.9" rx="14.6" ry="8.7"/>
	</g>
</g>
<g id="Kundservice" class="st0" transform="translate(-8.5,-6.8)">
	<g id="g103" class="st1">
		<path id="path95" d="m10.3 54.2-1.2-1.1c2.7-5.2 1.7-6.8 1.7-6.8-2.5-2.8-3.8-6.4-3.8-10.1 0-8.4 6.9-15.3 15.3-15.3s15.3 6.9 15.3 15.3-6.9 15.3-15.3 15.3c-2 0-3.9-0.4-5.7-1.1zm12-31.7c-7.5 0-13.6 6.1-13.6 13.6 0 3.3 1.2 6.6 3.4 9 0.3 0.3 1.3 1.9-0.3 6.1l4.2-2.6 0.8-0.1c1.7 0.8 3.6 1.1 5.5 1.1 7.5 0 13.6-6.1 13.6-13.6 0-7.4-6.1-13.5-13.6-13.5z"/>
		<path id="path97" d="m54.2 42.9-6.2-3.8c-1.8 0.7-3.7 1.1-5.7 1.1-0.5 0-0.8-0.4-0.8-0.8s0.4-0.8 0.8-0.8c1.9 0 3.7-0.4 5.5-1.1l0.8 0.1 4.2 2.6c-1.6-4.2-0.6-5.8-0.3-6.1 2.2-2.5 3.5-5.7 3.5-9.1 0-7.5-6.1-13.6-13.6-13.6-5.1 0-9.7 2.8-12.1 7.3-0.2 0.4-0.7 0.6-1.1 0.4s-0.6-0.7-0.4-1.1c2.7-5 7.9-8.2 13.6-8.2 8.4 0 15.3 6.9 15.3 15.3 0 3.8-1.4 7.4-3.9 10.2 0 0-0.9 1.7 1.7 6.8z"/>
		<text id="text99" class="st5 st6" transform="translate(17.797 43.415)">?</text>
		<text id="text101" class="st7 st8 st9" transform="translate(36.724 26.302)">...</text>
	</g>
</g>
<g id="Epaper" class="st0" transform="translate(-8.5,-6.8)">
	<g id="g122" class="st1">
		<path id="path106" d="m26.4 27.6h-0.6l-8.1-4.7 0.1-1.1 8.3-3.2h0.5l8.1 4.3v1.1zm-6.9-5.2 6.7 3.9 6.9-3-6.7-3.6z"/>
		<path id="path108" d="m45.1 29.9c-0.1 0-0.2 0-0.3-0.1l-7.5-4.1c-0.3-0.2-0.4-0.5-0.2-0.8s0.5-0.4 0.8-0.2l7.5 4.1c0.3 0.2 0.4 0.5 0.2 0.8-0.1 0.2-0.3 0.3-0.5 0.3z"/>
		<path id="path110" d="m40.5 31.3c-0.1 0-0.2 0-0.3-0.1l-7.5-4.1c-0.3-0.2-0.4-0.5-0.2-0.8s0.5-0.4 0.8-0.2l7.5 4.1c0.3 0.2 0.4 0.5 0.2 0.8-0.1 0.2-0.3 0.3-0.5 0.3z"/>
		<path id="path112" d="m36.6 33.4c-0.1 0-0.2 0-0.3-0.1l-7.5-4.1c-0.3-0.2-0.4-0.5-0.2-0.8s0.5-0.4 0.8-0.2l7.5 4.1c0.3 0.2 0.4 0.5 0.2 0.8-0.1 0.2-0.3 0.3-0.5 0.3z"/>
		<path id="path114" d="m33.5 36.3c-0.1 0-0.2 0-0.3-0.1l-20.2-11.2c-0.3-0.2-0.4-0.5-0.2-0.8s0.5-0.4 0.8-0.2l20.2 11.2c0.3 0.2 0.4 0.5 0.2 0.8 0 0.2-0.2 0.3-0.5 0.3z"/>
		<path id="path116" d="m30.9 39.5c-0.1 0-0.2 0-0.3-0.1l-20.3-11.2c-0.3-0.2-0.4-0.6-0.3-0.9 0.2-0.3 0.5-0.4 0.8-0.2l20.4 11.3c0.3 0.2 0.4 0.5 0.2 0.8 0 0.2-0.2 0.3-0.5 0.3z"/>
		<path id="path118" d="m36.9 47.9c-1 0-1.9-0.2-2.6-0.5-0.2-0.1-0.5-0.3-0.7-0.5-23.2-11.3-26.1-15.4-26.3-15.9l-0.1-0.2c-0.5-2-0.3-3.8 0.8-5.6 4.1-6.6 18.2-9.6 18.8-9.7l0.5 0.1 28.3 13.4-0.1 1.5c-6 1.5-21.4 6.9-21.4 13.5 0 0.8 0.2 1.3 0.5 1.5 0.1 0 0.1 0.1 0.2 0.1 0.1 0.1 0.3 0.2 0.3 0.3 3.7 1.9 15.5-4.1 18.6-6.4 0.6-0.4 2-1.4 2.2-2.6 0.1-0.5 0-0.9-0.3-1.3-0.6-0.8-6.6 1.2-14.9 6.5-0.4 0.2-0.9 0.1-1.1-0.3s-0.1-0.9 0.3-1.1c4.4-2.8 15-9 17.1-6.1 0.6 0.8 0.8 1.7 0.6 2.6-0.4 2.1-2.6 3.5-2.9 3.6-2 1.5-11.9 7.1-17.8 7.1zm-28.1-17.6c0.4 0.6 4 4.5 23.7 14.2v-0.5c0-7.6 14.8-12.8 20.4-14.5l-26-12.3c-1.9 0.4-14 3.3-17.4 8.9-0.9 1.3-1.1 2.7-0.7 4.2z"/>
		<path id="path120" d="m56.2 36c-0.1 0-0.3 0-0.4-0.1l-6.5-3.3c-0.4-0.2-0.6-0.7-0.4-1.1s0.7-0.6 1.1-0.4l6.5 3.3c0.4 0.2 0.6 0.7 0.4 1.1-0.1 0.3-0.4 0.5-0.7 0.5z"/>
	</g>
</g>
<g id="Menu_close" class="st0" transform="translate(-8.5,-6.8)">
	<path id="path125" class="st1" d="m52.8 14-38.7 38.7c-0.6 0.6-1.6 0.6-2.2 0l-0.8-0.8c-0.6-0.6-0.6-1.6 0-2.2l38.8-38.7c0.6-0.6 1.6-0.6 2.2 0l0.8 0.8c0.5 0.6 0.5 1.6-0.1 2.2z"/>
	<path id="path127" class="st1" d="m49.9 52.7-38.7-38.7c-0.6-0.6-0.6-1.6 0-2.2l0.8-0.8c0.6-0.6 1.6-0.6 2.2 0l38.7 38.7c0.6 0.6 0.6 1.6 0 2.2l-0.9 0.8c-0.6 0.5-1.6 0.5-2.1 0z"/>
</g>
<g id="Menu" class="st0" transform="translate(-8.5,-6.8)">
	<g id="g136" class="st1">
		<path id="path130" d="m56.1 19.9h-47.2c-0.8 0-1.5-0.7-1.5-1.5v-1.2c0-0.8 0.7-1.5 1.5-1.5h47.1c0.8 0 1.5 0.7 1.5 1.5v1.2c0.1 0.8-0.6 1.5-1.4 1.5z"/>
		<path id="path132" d="m56.1 34h-47.2c-0.8 0-1.5-0.7-1.5-1.5v-1.2c0-0.8 0.7-1.5 1.5-1.5h47.1c0.8 0 1.5 0.7 1.5 1.5v1.2c0.1 0.8-0.6 1.5-1.4 1.5z"/>
		<path id="path134" d="m56.1 48h-47.2c-0.8 0-1.5-0.7-1.5-1.5v-1.2c0-0.8 0.7-1.5 1.5-1.5h47.1c0.8 0 1.5 0.7 1.5 1.5v1.2c0.1 0.8-0.6 1.5-1.4 1.5z"/>
	</g>
</g>
<g id="Search_1_" class="st0" transform="translate(-8.5,-6.8)">
	<g id="g143" class="st1">
		<path id="path139" d="m27.2 46.6c-10.5 0-19-8.5-19-19s8.5-19 19-19 19 8.5 19 19-8.5 19-19 19zm0-35.7c-9.2 0-16.7 7.5-16.7 16.7s7.5 16.7 16.7 16.7 16.7-7.5 16.7-16.7-7.5-16.7-16.7-16.7z"/>
		<rect id="rect141" transform="matrix(.7071 -.7071 .7071 .7071 -18.779 47.359)" x="44.9" y="36.4" width="5.8" height="19.8"/>
	</g>
</g>
</svg>
