<?xml version="1.0" encoding="UTF-8"?>
<!-- Generator: Adobe Illustrator 24.0.3, SVG Export Plug-In . SVG Version: 6.00 Build 0)  -->
<svg id="Lager_2" width="52.6" height="46.6" version="1.1" viewBox="0 0 52.6 46.6" xml:space="preserve" xmlns="http://www.w3.org/2000/svg">
<style id="style2" type="text/css">
	.st0{stroke:#000000;stroke-width:0.5;stroke-miterlimit:10;}
</style>
<g id="g28" transform="translate(-6,-8.6)">
	<g id="g8">
		<path id="path4" d="m9.7 54.9-1.2-1.1c2.7-5.3 1.7-7 1.7-7-2.5-2.8-3.9-6.6-3.9-10.4 0-8.7 7.1-15.8 15.8-15.8s15.8 7.1 15.8 15.8-7.1 15.8-15.8 15.8c-2 0-4-0.4-5.9-1.1zm12.4-32.7c-7.8 0-14.1 6.3-14.1 14.1 0 3.4 1.3 6.8 3.6 9.3 0.3 0.3 1.4 1.9-0.3 6.3l4.4-2.7 0.8-0.1c1.8 0.8 3.7 1.2 5.6 1.2 7.7 0 14.1-6.3 14.1-14.1-0.1-7.7-6.4-14-14.1-14z"/>
		<path id="path6" d="m9.7 55.2-1.5-1.4 0.1-0.1c2.6-5.1 1.7-6.8 1.7-6.8-2.5-2.9-4-6.7-4-10.6 0-8.8 7.2-16 16-16s16 7.2 16 16-7.2 16-16 16c-2 0-4-0.4-5.9-1.1zm-0.9-1.5 1 0.9 6.4-3.9h0.1c1.9 0.7 3.8 1.1 5.8 1.1 8.6 0 15.6-7 15.6-15.6s-7-15.6-15.6-15.6-15.6 7-15.6 15.6c0 3.8 1.4 7.5 3.9 10.3 0 0.2 1.1 1.9-1.6 7.2zm2-1.3 0.2-0.6c1.6-4.3 0.6-5.8 0.3-6.1-2.3-2.6-3.6-6-3.6-9.5 0-7.9 6.4-14.3 14.3-14.3s14.3 6.4 14.3 14.3-6.4 14.3-14.3 14.3c-2 0-3.9-0.4-5.7-1.2l-0.7 0.1zm11.3-30c-7.6 0-13.8 6.2-13.8 13.8 0 3.4 1.2 6.7 3.5 9.2 0.3 0.4 1.3 2 0 5.9l3.9-2.4 0.9-0.1c1.8 0.8 3.6 1.2 5.5 1.2 7.6 0 13.8-6.2 13.8-13.8s-6.2-13.8-13.8-13.8z"/>
	</g>
	<g id="g14">
		<path id="path10" d="m55.1 43.3-6.4-4c-1.9 0.8-3.9 1.1-5.9 1.1-0.5 0-0.9-0.4-0.9-0.9s0.4-0.9 0.9-0.9c2 0 3.9-0.4 5.6-1.2l0.8 0.1 4.4 2.7c-1.7-4.4-0.6-6-0.3-6.3 2.3-2.6 3.6-5.9 3.6-9.4 0-7.7-6.3-14.1-14.1-14.1-5.2 0-10 2.9-12.4 7.5-0.2 0.4-0.8 0.6-1.2 0.4s-0.6-0.8-0.4-1.2c2.7-5.2 8.1-8.4 14-8.4 8.7 0 15.8 7.1 15.8 15.8 0 3.9-1.4 7.6-4 10.5 0 0-1 1.7 1.8 7z"/>
		<path id="path12" d="m55.1 43.5-6.5-4c-1.9 0.7-3.9 1.1-5.9 1.1-0.6 0-1.1-0.5-1.1-1.1s0.5-1.1 1.1-1.1c1.9 0 3.8-0.4 5.5-1.2l1 0.1 3.8 2.4c-1.4-3.9-0.4-5.5-0.1-5.9 2.3-2.5 3.5-5.8 3.5-9.2 0-7.6-6.2-13.8-13.8-13.8-5.2 0-9.8 2.8-12.2 7.4-0.3 0.5-0.9 0.7-1.5 0.5-0.5-0.3-0.7-0.9-0.5-1.5 2.8-5.3 8.2-8.6 14.2-8.6 8.8 0 16 7.2 16 16 0 3.9-1.4 7.7-4 10.6-0.1 0.3-0.6 2.1 1.8 6.8l0.1 0.1zm-6.4-4.5 6.3 4 1-0.9c-2.4-4.8-1.8-6.7-1.7-7l0.2 0.1-0.1-0.2c2.5-2.9 3.9-6.5 3.9-10.4 0-8.6-7-15.6-15.6-15.6-5.8 0-11.1 3.2-13.8 8.3-0.2 0.3 0 0.7 0.3 0.9s0.7 0 0.9-0.3c2.5-4.7 7.3-7.6 12.6-7.6 7.9 0 14.3 6.4 14.3 14.3 0 3.5-1.3 6.9-3.6 9.5-0.2 0.3-1.3 1.8 0.4 6.1l0.2 0.6-4.9-3-0.7-0.1c-1.8 0.8-3.7 1.2-5.7 1.2-0.4 0-0.7 0.3-0.7 0.7s0.3 0.7 0.7 0.7c2 0 4-0.4 5.8-1.1z"/>
	</g>
	<g id="g18">
		<path id="path16" class="st0" d="m20.9 39.6c0-0.9 0.1-1.6 0.3-2.1s0.6-1.1 1.3-1.7c0.6-0.6 1-1.1 1.2-1.3 0.3-0.4 0.4-0.8 0.4-1.3 0-0.6-0.2-1.1-0.5-1.4s-0.7-0.5-1.3-0.5-1 0.2-1.4 0.5c-0.3 0.3-0.5 0.7-0.5 1.3h-2.4c0-1.2 0.4-2.1 1.2-2.7 0.8-0.7 1.8-1 3.1-1s2.3 0.3 3.1 1c0.7 0.7 1.1 1.6 1.1 2.8 0 1.1-0.5 2.1-1.5 3.1l-1.2 1.2c-0.4 0.5-0.7 1.2-0.7 2.1zm-0.2 3c0-0.4 0.1-0.7 0.4-0.9 0.2-0.2 0.6-0.4 1-0.4s0.7 0.1 1 0.4c0.2 0.2 0.4 0.6 0.4 0.9 0 0.4-0.1 0.7-0.4 0.9-0.2 0.2-0.6 0.4-1 0.4s-0.8-0.1-1-0.4c-0.3-0.2-0.4-0.5-0.4-0.9z"/>
	</g>
	<g id="g26">
		<path id="path20" class="st0" d="m36.5 24.6c0-0.5 0.2-0.9 0.5-1.2s0.7-0.4 1.2-0.4 0.9 0.1 1.2 0.4 0.5 0.7 0.5 1.2-0.2 0.8-0.5 1.1-0.7 0.4-1.2 0.4-0.9-0.1-1.2-0.4-0.5-0.6-0.5-1.1z"/>
		<path id="path22" class="st0" d="m42 24.6c0-0.5 0.2-0.9 0.5-1.2s0.7-0.4 1.2-0.4 0.9 0.1 1.2 0.4 0.5 0.7 0.5 1.2-0.2 0.8-0.5 1.1-0.7 0.4-1.2 0.4-0.9-0.1-1.2-0.4-0.5-0.6-0.5-1.1z"/>
		<path id="path24" class="st0" d="m47.5 24.6c0-0.5 0.2-0.9 0.5-1.2s0.7-0.4 1.2-0.4 0.9 0.1 1.2 0.4 0.5 0.7 0.5 1.2-0.2 0.8-0.5 1.1-0.7 0.4-1.2 0.4-0.9-0.1-1.2-0.4c-0.3-0.2-0.5-0.6-0.5-1.1z"/>
	</g>
</g>
</svg>
