<?xml version="1.0" encoding="utf-8"?>
<!-- Generator: Adobe Illustrator 24.0.3, SVG Export Plug-In . SVG Version: 6.00 Build 0)  -->
<svg version="1.1" xmlns="http://www.w3.org/2000/svg" xmlns:xlink="http://www.w3.org/1999/xlink" x="0px" y="0px"
	 viewBox="0 0 362.8 97.6" style="enable-background:new 0 0 362.8 97.6;" xml:space="preserve">
<style type="text/css">
	.st0{fill:#F07E26;}
  .darkmode{fill: #fff;}
</style>
<g id="Lager_2">
</g>
<g id="Lager_3">
	<g>
		<g>
			<path class="darkmode" d="M100.1,60.7c-0.8-6.5-7.9-6.6-7.9-6.6s-3.5-0.1-6.8,0V76c5.4,0.2,8.6,0,8.6,0s5.1,0,6-5.2
				C100.8,66,100.1,60.7,100.1,60.7 M98.8,25.3c-1.2-5.1-7.1-5.2-7.1-5.2s-3.2-0.1-6.3,0v18.1c5,0.2,8-0.2,8-0.2s4.5,0,5.5-4.6
				C99.6,30,98.8,25.3,98.8,25.3 M120.2,73.8c0,22.5-23.1,20.7-23.1,20.7H64.4V2.2h29.4c0,0,24.6-2.1,24.6,20.2v6.9
				c0,0,0.6,12.1-12.1,15.9l-0.6,0.5l0.5,0.3c0,0,13.9,1,13.9,19.2V73.8z"/>
			<polygon class="darkmode" points="38,94.5 38,57 22.8,57 22.8,94.5 2.1,94.5 2.1,2.2 22.8,2.2 22.8,37.8 38,37.8 38,2.2 58.7,2.2 58.7,94.5 			"/>
			<polygon class="darkmode" points="124.7,94.5 124.7,2.2 145.6,2.2 145.6,76.1 171,76.1 171,94.5 			"/>
		</g>
		<g>
			<path class="st0" d="M200.9,50.4v39.8c0,2.6,1.1,3,3.2,3.3l1.6,0.3v0.7h-20v-0.7l1.7-0.3c2.4-0.4,3.9-0.7,3.9-3.3V61.8
				c0-3-0.9-4.3-4-5.1l-1.4-0.4v-0.9c4.7-1.3,11.1-3.8,14.3-5.5L200.9,50.4z"/>
			<path class="st0" d="M220.4,68.2c2.6-2.2,5.7-3.3,9.7-3.3c8,0,16.1,3.8,16.1,13.9c0,8.9-6.4,16.5-17.3,16.5
				c-11.2,0-18.7-8.4-18.7-22.9c0-14.2,9.9-26.5,23.4-26.5c6.6,0,11.7,2.3,11.7,6.8c0,2.5-1.6,3.7-3.7,3.7c-5.2,0-3.3-9.1-9.4-9.1
				S221.4,56.5,220.4,68.2z M228.8,94c4.8,0,7.6-6.8,7.6-14.1c0-9.5-4.1-12.8-8.6-12.8c-3.3,0-5.7,1-7.5,2.6
				c-0.1,1.1-0.1,2.1-0.1,3.2C220.3,84.3,223.6,94,228.8,94z"/>
			<path class="st0" d="M269.3,95.4c-10.4,0-19.5-8.4-19.5-22.1c0-13.6,8.4-23.2,18.7-23.2c10.3,0,19.4,8.7,19.4,21.9
				C288,85.4,279.5,95.4,269.3,95.4z M278.1,72.2c0-11.4-3.4-20.7-9.4-20.7c-6.2,0-8.9,10-8.9,21.7c0,11.3,3.8,20.9,9.7,20.9
				C275.9,94.1,278.1,83.6,278.1,72.2z"/>
			<path class="st0" d="M329.5,95.4c-4,0-6.2-2.1-7-5.3h-0.3c-1.1,1.9-4.3,5.3-10.1,5.3c-6.3,0-9.7-3.7-9.7-8.4c0-2.8,1.2-6,4.3-7.2
				c1.8-0.7,11.4-3.8,15.4-5v-6c0-5.6-2-7.5-5.7-7.5c-5.1,0-5,7.5-9.6,7.5c-2.1,0-3.1-1.5-3.1-3.2c0-3.1,4.5-5.9,12.6-5.9
				c8.2,0,14.5,2.5,14.5,9.2v19.4c0,2.1,0.6,3.8,2.8,3.8c1.1,0,2.1-0.5,2.5-0.8v0.6C335.3,93.2,332.7,95.4,329.5,95.4z M309.9,49.2
				c0-3.6,2.8-6.3,7-6.3c4.3,0,7.1,2.7,7.1,6.3c0,3.7-2.8,6.5-7.1,6.5C312.6,55.7,309.9,52.9,309.9,49.2z M322.1,76.3
				c-2.1,0.8-5.5,1.8-7.3,2.6c-1.8,0.8-3.2,3.1-3.2,6.5c0,3.7,2.1,5.8,5.5,5.8c2.3,0,4.4-1.5,5-2.4C322.1,86.9,322,80.4,322.1,76.3z
				 M320.4,49.2c0-2.8-1.6-4.7-3.5-4.7c-2,0-3.5,1.8-3.5,4.7s1.5,4.8,3.5,4.8C318.9,54,320.4,52.2,320.4,49.2z"/>
			<path class="st0" d="M357,59.4c1.5,0,2.7,0.4,3.3,0.9v7.6c-1.2-0.5-2.5-0.9-4.5-0.9c-2.9,0-5.9,1.2-7.4,2.8l0.1,20.4
				c0,2.6,0.8,3,2.6,3.3l2.3,0.4v0.7h-17.4v-0.7l1.4-0.3c1.7-0.4,2.1-0.7,2.1-3.3V65.5l-3.8-1.3v-0.9c2.2-0.4,8.7-2.6,12-4l0.6,0.4
				v8.3C350.5,63.4,354,59.4,357,59.4z"/>
		</g>
	</g>
</g>
</svg>
