<?xml version="1.0" encoding="utf-8"?>
<!-- Generator: Adobe Illustrator 24.0.3, SVG Export Plug-In . SVG Version: 6.00 Build 0)  -->
<svg version="1.1" id="Lager_1" xmlns="http://www.w3.org/2000/svg" xmlns:xlink="http://www.w3.org/1999/xlink" x="0px" y="0px"
	 viewBox="0 0 330.1 330.1" style="enable-background:new 0 0 330.1 330.1;" xml:space="preserve">
<style type="text/css">
	.st0{fill:#FFFFFF;}
</style>
<circle cx="165.4" cy="165.4" r="150"/>
<path class="st0" d="M165.4,319.4c-84.9,0-154-69.1-154-154s69.1-154,154-154s154,69.1,154,154S250.3,319.4,165.4,319.4z
	 M165.4,19.4c-80.5,0-146,65.5-146,146s65.5,146,146,146s146-65.5,146-146S245.9,19.4,165.4,19.4z"/>
<g>
	<g>
		<path class="st0" d="M182.8,151L250,78.5h-16.8l-58.3,61.8l-46.7-61.8H72.4l72.2,96l-72.2,77.9H90l61.7-67.5l51,67.5h55.5
			L182.8,151z M97.3,90.5h24.4l112.7,149.9h-25.3L97.3,90.5z"/>
	</g>
</g>
</svg>
